<?xml version="1.0" encoding="utf-8"?>
<!-- Generator: Adobe Illustrator 26.0.0, SVG Export Plug-In . SVG Version: 6.00 Build 0)  -->
<svg version="1.1" id="Camada_1" xmlns="http://www.w3.org/2000/svg" xmlns:xlink="http://www.w3.org/1999/xlink" x="0px" y="0px"
	 viewBox="0 0 180 180" style="enable-background:new 0 0 180 180;" xml:space="preserve">
<style type="text/css">
	.st0{fill:#46596D;}
</style>
<g>
	<g>
		<path class="st0" d="M179.9,122.9c-13.6,33.5-47.3,57.3-86.8,57.3c-51.5,0-93.2-40.3-93.2-90c0-43.9,32.5-80.4,75.5-88.4
			C81.1,0.7,87,0.2,93.1,0.2c34.4,0,64.4,18,80.6,44.8l-52.8,22.6C113.6,53,98.2,42.9,80.4,42.9c-21.1,0-38.8,14-43.6,33l-3.1,1.8
			l-12.4,7l14.6,7.5l0.4,0.2c2.3,8.2,5.8,15.8,10.5,22.7c14.8,22,40.4,36.6,69.6,36.6C141.8,151.6,164.7,140.4,179.9,122.9z"/>
	</g>
	<ellipse class="st0" cx="59.9" cy="69.6" rx="4" ry="3.9"/>
</g>
</svg>
